<svg width="24" height="17" viewBox="0 0 24 17" fill="none" xmlns="http://www.w3.org/2000/svg">
<g clip-path="url(#clip0_2038_6)">
<path d="M9.98932 1.84224C10.7626 1.03656 11.8391 0.536869 13.0296 0.536869C14.6124 0.536869 15.9933 1.41943 16.7285 2.72959C17.3863 2.43573 18.0988 2.28429 18.8192 2.28521C21.6738 2.28521 23.988 4.61959 23.988 7.49912C23.988 10.379 21.6738 12.7135 18.8192 12.7135C18.4772 12.7137 18.1362 12.6797 17.801 12.612C17.1534 13.7671 15.9195 14.5474 14.5031 14.5474C13.9303 14.5482 13.3649 14.4181 12.8501 14.167C12.1937 15.7111 10.6642 16.7938 8.88166 16.7938C7.02541 16.7938 5.44347 15.6192 4.83616 13.9719C4.57085 14.0283 4.29588 14.0577 4.01379 14.0577C1.80372 14.0577 0.0119729 12.2476 0.0119729 10.0142C0.0103996 9.30648 0.194329 8.61067 0.545433 7.99613C0.896538 7.3816 1.40256 6.8698 2.01307 6.51174C1.75964 5.92815 1.62917 5.29859 1.62982 4.66234C1.62982 2.09396 3.71491 0.0119629 6.28685 0.0119629C7.79679 0.0119629 9.13863 0.7299 9.98932 1.84224Z" fill="white"/>
</g>
<defs>
<clipPath id="clip0_2038_6">
<rect width="24" height="16.875" fill="white"/>
</clipPath>
</defs>
</svg>
