<svg width="24" height="17" viewBox="0 0 24 17" fill="none" xmlns="http://www.w3.org/2000/svg">
<g clip-path="url(#clip0_2038_6)">
<path d="M9.98932 1.84231C10.7626 1.03662 11.8391 0.53693 13.0296 0.53693C14.6124 0.53693 15.9933 1.41949 16.7285 2.72965C17.3863 2.43579 18.0988 2.28436 18.8192 2.28527C21.6738 2.28527 23.988 4.61965 23.988 7.49918C23.988 10.3791 21.6738 12.7136 18.8192 12.7136C18.4772 12.7137 18.1362 12.6797 17.801 12.612C17.1534 13.7671 15.9195 14.5475 14.5031 14.5475C13.9303 14.5483 13.3649 14.4181 12.8501 14.1671C12.1937 15.7111 10.6642 16.7938 8.88166 16.7938C7.02541 16.7938 5.44347 15.6192 4.83616 13.972C4.57085 14.0284 4.29588 14.0577 4.01379 14.0577C1.80372 14.0577 0.0119729 12.2476 0.0119729 10.0143C0.0103996 9.30654 0.194329 8.61073 0.545433 7.99619C0.896538 7.38166 1.40256 6.86986 2.01307 6.51181C1.75964 5.92821 1.62917 5.29865 1.62982 4.6624C1.62982 2.09402 3.71491 0.0120239 6.28685 0.0120239C7.79679 0.0120239 9.13863 0.729961 9.98932 1.84231Z" fill="#00A1E0"/>
<path d="M3.48466 8.7146C3.46966 8.75388 3.4901 8.76204 3.49497 8.76897C3.53997 8.80169 3.58572 8.82522 3.63185 8.85147C3.87644 8.98132 4.10725 9.01929 4.34875 9.01929C4.84056 9.01929 5.14591 8.75772 5.14591 8.33651V8.32835C5.14591 7.93901 4.80128 7.79754 4.47785 7.69554L4.43585 7.68176C4.192 7.60254 3.98163 7.53429 3.98163 7.37369V7.36526C3.98163 7.22791 4.10453 7.12676 4.29513 7.12676C4.50691 7.12676 4.75825 7.19707 4.92016 7.2866C4.92016 7.2866 4.9676 7.31735 4.98503 7.27122C4.9946 7.24666 5.07653 7.02607 5.08516 7.00216C5.09435 6.97619 5.07794 6.95707 5.06125 6.94685C4.87647 6.83435 4.621 6.75757 4.35663 6.75757L4.30741 6.75794C3.85731 6.75794 3.54306 7.02982 3.54306 7.41954V7.42769C3.54306 7.8386 3.88975 7.97172 4.2145 8.06463L4.26681 8.08076C4.50344 8.15341 4.70744 8.21594 4.70744 8.38263V8.39079C4.70744 8.54313 4.57488 8.65657 4.36103 8.65657C4.27806 8.65657 4.01341 8.65488 3.72747 8.47413C3.69297 8.45397 3.67281 8.43935 3.64619 8.42332C3.63213 8.41441 3.59706 8.39894 3.58169 8.44544L3.48466 8.7146ZM10.6847 8.7146C10.6697 8.75388 10.6901 8.76204 10.695 8.76897C10.74 8.80169 10.7857 8.82522 10.8318 8.85147C11.0763 8.98132 11.3073 9.01929 11.5488 9.01929C12.0406 9.01929 12.3459 8.75772 12.3459 8.33651V8.32835C12.3459 7.93901 12.0013 7.79754 11.6778 7.69554L11.6358 7.68176C11.392 7.60254 11.1815 7.53429 11.1815 7.37369V7.36526C11.1815 7.22791 11.3045 7.12676 11.4951 7.12676C11.7069 7.12676 11.9583 7.19707 12.1202 7.2866C12.1202 7.2866 12.1676 7.31735 12.185 7.27122C12.1946 7.24666 12.2765 7.02607 12.2851 7.00216C12.2943 6.97619 12.2779 6.95707 12.2612 6.94685C12.0765 6.83435 11.8209 6.75757 11.5566 6.75757L11.5074 6.75794C11.0572 6.75794 10.7431 7.02982 10.7431 7.41954V7.42769C10.7431 7.8386 11.0897 7.97172 11.4145 8.06463L11.4667 8.08076C11.7034 8.15341 11.9077 8.21594 11.9077 8.38263V8.39079C11.9077 8.54313 11.7748 8.65657 11.561 8.65657C11.3367 8.65817 11.1166 8.59481 10.9275 8.47413C10.893 8.45397 10.8724 8.44001 10.8466 8.42332C10.8377 8.41751 10.7959 8.40138 10.7816 8.44544L10.6847 8.7146ZM15.5999 7.88969C15.5999 8.12782 15.5554 8.31532 15.4681 8.44779C15.3816 8.57904 15.2508 8.64279 15.0684 8.64279C14.8857 8.64279 14.7556 8.57932 14.6705 8.44779C14.5845 8.3156 14.5408 8.12782 14.5408 7.88969C14.5408 7.65204 14.5845 7.46482 14.6705 7.33376C14.7556 7.20391 14.8857 7.14072 15.0684 7.14072C15.2508 7.14072 15.3815 7.20391 15.4683 7.33366C15.5555 7.46491 15.5999 7.65204 15.5999 7.88969ZM16.0104 7.44841C15.9701 7.31219 15.9073 7.19201 15.8236 7.09188C15.7398 6.99147 15.634 6.91094 15.5083 6.85216C15.3829 6.79376 15.2347 6.76404 15.0684 6.76404C14.9017 6.76404 14.7535 6.79376 14.6282 6.85216C14.5025 6.91085 14.3966 6.99147 14.3126 7.09188C14.2293 7.19229 14.1663 7.31257 14.1258 7.44841C14.0858 7.58407 14.0658 7.73229 14.0658 7.88969C14.0658 8.04719 14.0858 8.19579 14.1258 8.33097C14.1664 8.46691 14.2289 8.5871 14.313 8.6876C14.3987 8.78963 14.5065 8.87089 14.6282 8.92526C14.7538 8.98235 14.9017 9.01132 15.0684 9.01132C15.2347 9.01132 15.3827 8.98226 15.5083 8.92526C15.63 8.8709 15.7378 8.78964 15.8236 8.6876C15.9073 8.58747 15.9701 8.46729 16.0104 8.33097C16.0507 8.19541 16.0709 8.04691 16.0709 7.88969C16.0709 7.73266 16.0507 7.58407 16.0104 7.44841ZM19.3816 8.57932C19.368 8.53938 19.3293 8.55438 19.3293 8.55438C19.2696 8.57726 19.2061 8.59844 19.1385 8.60904C19.0639 8.62003 18.9887 8.62538 18.9134 8.62507C18.7146 8.62507 18.5568 8.56601 18.4437 8.44919C18.3303 8.33238 18.2668 8.14357 18.2674 7.88801C18.2682 7.65551 18.3243 7.48057 18.4249 7.34735C18.5251 7.21488 18.6773 7.14691 18.8806 7.14691C19.05 7.14691 19.1791 7.16632 19.3143 7.20907C19.3143 7.20907 19.3468 7.22313 19.3622 7.18066C19.398 7.08101 19.4247 7.00957 19.4629 6.89997C19.4738 6.86885 19.4472 6.85554 19.4376 6.85179C19.3844 6.83097 19.2587 6.79713 19.1637 6.78279C19.0749 6.76919 18.9711 6.76197 18.8556 6.76197C18.6831 6.76197 18.5295 6.79132 18.3979 6.8501C18.2668 6.90851 18.1555 6.98913 18.0674 7.08954C17.9793 7.18994 17.9123 7.31013 17.8676 7.44607C17.8232 7.58163 17.8007 7.7306 17.8007 7.88801C17.8007 8.22851 17.8925 8.50385 18.0738 8.70532C18.2555 8.90754 18.5285 9.01029 18.8843 9.01029C19.0947 9.01029 19.3106 8.96763 19.4656 8.90651C19.4656 8.90651 19.4954 8.89216 19.4824 8.85766L19.3816 8.57932ZM20.1 7.66169C20.1194 7.52951 20.1559 7.41954 20.2123 7.33385C20.2973 7.20372 20.4271 7.13229 20.6095 7.13229C20.7918 7.13229 20.9124 7.20401 20.9988 7.33385C21.0562 7.41954 21.0812 7.53429 21.091 7.66169H20.1ZM21.4821 7.37107C21.4473 7.23954 21.3608 7.10669 21.3042 7.04594C21.2147 6.94957 21.1273 6.88226 21.0405 6.84476C20.9145 6.79125 20.7791 6.76382 20.6422 6.76413C20.4688 6.76413 20.3113 6.79319 20.1836 6.85319C20.0555 6.91338 19.9479 6.99532 19.8635 7.09751C19.7792 7.19922 19.7157 7.32054 19.6754 7.45816C19.6347 7.59504 19.6143 7.74438 19.6143 7.90179C19.6143 8.06201 19.6354 8.21116 19.6774 8.34541C19.7197 8.48069 19.7874 8.59994 19.879 8.69857C19.9701 8.79794 20.0876 8.87585 20.2283 8.93013C20.368 8.98413 20.5377 9.01216 20.7327 9.01179C21.134 9.01038 21.3455 8.92094 21.4325 8.87276C21.4479 8.86432 21.4626 8.84922 21.4442 8.80619L21.3533 8.55176C21.3397 8.51379 21.3011 8.52785 21.3011 8.52785C21.2017 8.56469 21.0603 8.63097 20.7307 8.63032C20.5152 8.62994 20.3553 8.56638 20.2553 8.46701C20.1525 8.36529 20.1023 8.21576 20.0934 8.00463L21.4832 8.00594C21.4832 8.00594 21.5197 8.00529 21.5235 7.96976C21.5248 7.95476 21.5713 7.68419 21.4821 7.37107ZM8.97025 7.66169C8.99003 7.52951 9.02622 7.41954 9.08266 7.33385C9.16769 7.20372 9.29744 7.13229 9.47978 7.13229C9.66222 7.13229 9.78278 7.20401 9.8695 7.33385C9.92659 7.41954 9.95153 7.53429 9.96138 7.66169H8.97025ZM10.3521 7.37107C10.3173 7.23954 10.2312 7.10669 10.1745 7.04594C10.085 6.94957 9.99756 6.88226 9.91085 6.84476C9.78491 6.79125 9.64943 6.76382 9.51259 6.76413C9.33944 6.76413 9.18166 6.79319 9.05397 6.85319C8.92581 6.91338 8.81828 6.99532 8.73391 7.09751C8.64953 7.19922 8.58606 7.32054 8.54575 7.45816C8.50544 7.59504 8.48463 7.74438 8.48463 7.90179C8.48463 8.06201 8.50572 8.21116 8.54781 8.34541C8.59009 8.48069 8.65778 8.59994 8.74928 8.69857C8.8405 8.79794 8.95797 8.87585 9.09869 8.93013C9.23838 8.98413 9.40806 9.01216 9.60306 9.01179C10.0044 9.01038 10.2158 8.92094 10.3029 8.87276C10.3183 8.86432 10.3329 8.84922 10.3145 8.80619L10.2241 8.55176C10.21 8.51379 10.1715 8.52785 10.1715 8.52785C10.0721 8.56469 9.931 8.63097 9.60072 8.63032C9.38556 8.62994 9.22572 8.56638 9.12569 8.46701C9.02285 8.36529 8.97259 8.21576 8.96378 8.00463L10.3534 8.00594C10.3534 8.00594 10.39 8.00529 10.3938 7.96976C10.3952 7.95476 10.4416 7.68419 10.3521 7.37107ZM5.96641 8.57163C5.91203 8.52832 5.90453 8.51735 5.88616 8.48932C5.85878 8.44666 5.84481 8.38582 5.84481 8.30866C5.84481 8.18641 5.88513 8.09866 5.96875 8.0396C5.96781 8.03988 6.08828 7.93535 6.37188 7.9391C6.57091 7.94191 6.74884 7.97126 6.74884 7.97126V8.60313H6.74922C6.74922 8.60313 6.5726 8.64101 6.37385 8.65291C6.091 8.66997 5.96538 8.57135 5.96641 8.57163ZM6.51935 7.59522C6.463 7.5911 6.38997 7.58866 6.3025 7.58866C6.18325 7.58866 6.06813 7.60366 5.96031 7.63272C5.8562 7.6597 5.75783 7.70531 5.66997 7.76735C5.58606 7.82721 5.51709 7.90562 5.46841 7.99647C5.41928 8.08807 5.39435 8.19597 5.39435 8.31682C5.39435 8.43982 5.41544 8.54669 5.45781 8.63416C5.49913 8.72062 5.56151 8.79532 5.63922 8.85138C5.71638 8.90772 5.81172 8.94907 5.92235 8.97401C6.03128 8.99894 6.15485 9.01151 6.29013 9.01151C6.43263 9.01151 6.57466 8.99997 6.71228 8.97635C6.82941 8.95618 6.94613 8.93365 7.06234 8.90876C7.10847 8.89779 7.15975 8.88382 7.15975 8.88382C7.19425 8.87529 7.19144 8.83835 7.19144 8.83835L7.19078 7.56757C7.19078 7.28885 7.11635 7.08222 6.96981 6.95416C6.82403 6.82638 6.60916 6.76188 6.33147 6.76188C6.22741 6.76188 6.0596 6.77622 5.95928 6.79638C5.95928 6.79638 5.65553 6.85507 5.53056 6.95276C5.53056 6.95276 5.50328 6.96982 5.51828 7.00807L5.61672 7.27244C5.62891 7.30657 5.6621 7.29494 5.6621 7.29494C5.6621 7.29494 5.67269 7.29091 5.68497 7.28369C5.95235 7.13819 6.2905 7.14269 6.2905 7.14269C6.44078 7.14269 6.55619 7.17269 6.63409 7.23251C6.70994 7.29054 6.74847 7.37829 6.74847 7.56344V7.62213C6.62894 7.60507 6.51935 7.59522 6.51935 7.59522ZM17.7281 6.87907C17.7301 6.87443 17.7311 6.86944 17.7312 6.86439C17.7312 6.85934 17.7302 6.85434 17.7283 6.84968C17.7263 6.84502 17.7234 6.84081 17.7198 6.83729C17.7162 6.83376 17.7119 6.83101 17.7072 6.82919C17.6837 6.82001 17.5654 6.79507 17.4742 6.78926C17.2998 6.77866 17.2027 6.80801 17.116 6.84701C17.0299 6.88591 16.9343 6.94872 16.881 7.02016V6.85104C16.881 6.82751 16.8643 6.80876 16.841 6.80876H16.4848C16.4616 6.80876 16.4448 6.82751 16.4448 6.85104V8.92385C16.4448 8.9471 16.464 8.96622 16.4872 8.96622H16.8523C16.8578 8.9662 16.8633 8.96508 16.8684 8.96294C16.8735 8.9608 16.8782 8.95767 16.8821 8.95374C16.886 8.9498 16.889 8.94514 16.8911 8.94001C16.8932 8.93488 16.8943 8.92939 16.8943 8.92385V7.88829C16.8943 7.74935 16.9097 7.6106 16.9404 7.5236C16.9704 7.43744 17.0115 7.36854 17.062 7.31894C17.1103 7.27141 17.1692 7.23606 17.2338 7.21582C17.2983 7.19604 17.3698 7.18957 17.4203 7.18957C17.4931 7.18957 17.5729 7.20832 17.5729 7.20832C17.5996 7.21141 17.6147 7.19501 17.6236 7.17082C17.6474 7.10726 17.7151 6.91694 17.728 6.87907" fill="white"/>
<path d="M14.301 5.91842C14.2559 5.90483 14.21 5.89388 14.1636 5.8856C14.1012 5.87537 14.038 5.8706 13.9748 5.87135C13.7234 5.87135 13.5253 5.94232 13.3863 6.08238C13.248 6.2217 13.154 6.43385 13.107 6.71285L13.0898 6.80679H12.7743C12.7743 6.80679 12.736 6.80538 12.7278 6.8471L12.6763 7.13642C12.6725 7.1637 12.6844 7.18113 12.7213 7.18113H13.0284L12.7169 8.9202C12.6927 9.06026 12.6647 9.17538 12.6335 9.26276C12.6032 9.34882 12.5735 9.41342 12.5366 9.46057C12.501 9.50557 12.4676 9.53913 12.4095 9.55854C12.3617 9.57467 12.3063 9.58217 12.2459 9.58217C12.2124 9.58217 12.1677 9.57663 12.1346 9.56988C12.1086 9.56482 12.0834 9.55663 12.0594 9.54551C12.0594 9.54551 12.0236 9.53192 12.0092 9.56782C11.998 9.59754 11.916 9.82254 11.9061 9.85029C11.8966 9.87795 11.9102 9.89942 11.9276 9.90588C11.9686 9.92023 11.9989 9.92979 12.0546 9.9431C12.1319 9.96129 12.1971 9.96223 12.2583 9.96223C12.3859 9.96223 12.5027 9.94413 12.5994 9.90935C12.6964 9.8742 12.7811 9.81298 12.8563 9.73029C12.9372 9.64085 12.9881 9.54729 13.0366 9.41923C13.0848 9.29285 13.1261 9.13573 13.1588 8.95273L13.472 7.18113H13.9297C13.9297 7.18113 13.9682 7.18245 13.9761 7.14045L14.0281 6.85151C14.0314 6.82385 14.0199 6.80679 13.9826 6.80679H13.5382C13.5407 6.79685 13.5608 6.64048 13.6117 6.49329C13.6336 6.43076 13.6745 6.37985 13.709 6.34507C13.7415 6.31196 13.7815 6.28711 13.8256 6.2726C13.8696 6.25826 13.9198 6.25142 13.9748 6.25142C14.0164 6.25142 14.0578 6.2562 14.0888 6.26267C14.1319 6.27195 14.1486 6.27673 14.1599 6.2801C14.2053 6.29379 14.2114 6.28048 14.2203 6.25854L14.3266 5.96698C14.3375 5.93557 14.3105 5.92217 14.301 5.91842ZM8.09266 8.92404C8.09266 8.9472 8.07588 8.96604 8.05272 8.96604H7.68419C7.66094 8.96604 7.64453 8.94729 7.64453 8.92404V5.95807C7.64453 5.93492 7.66094 5.91607 7.68419 5.91607H8.05262C8.07587 5.91607 8.09266 5.93482 8.09266 5.95807V8.92404Z" fill="white"/>
</g>
<defs>
<clipPath id="clip0_2038_6">
<rect width="24" height="16.875" fill="white"/>
</clipPath>
</defs>
</svg>
