<svg width="24" height="24" viewBox="0 0 24 24" fill="none" xmlns="http://www.w3.org/2000/svg">
<g clip-path="url(#clip0_2038_14)">
<path d="M8.63586 3C6.61071 3 4.66849 3.80449 3.23649 5.23649C1.80449 6.66849 1 8.61071 1 10.6359C1 12.661 1.80449 14.6032 3.23649 16.0352C4.66849 17.4672 6.61071 18.2717 8.63586 18.2717H9.80306C9.69863 17.5482 9.69863 16.8135 9.80306 16.09H8.63586C7.18932 16.09 5.80203 15.5154 4.77917 14.4926C3.75631 13.4697 3.18167 12.0824 3.18167 10.6359C3.18167 9.18932 3.75631 7.80203 4.77917 6.77917C5.80203 5.75631 7.18932 5.18167 8.63586 5.18167H17.3626C18.1714 5.18151 18.9702 5.36126 19.7011 5.7079C20.4319 6.05454 21.0765 6.5594 21.5881 7.1859C22.0998 7.8124 22.4656 8.54486 22.6593 9.33021C22.8529 10.1156 22.8694 10.9342 22.7077 11.7267C23.3507 12.3566 23.8773 13.0951 24.2632 13.9084C24.8153 12.7444 25.064 11.4596 24.986 10.1737C24.908 8.88771 24.5059 7.6424 23.8172 6.55366C23.1285 5.46491 22.1754 4.56812 21.0469 3.94678C19.9183 3.32543 18.6509 2.99973 17.3626 3H8.63586ZM17.3626 13.9084C16.4946 13.9084 15.6623 14.2532 15.0485 14.8669C14.4348 15.4806 14.09 16.313 14.09 17.1809C14.09 18.0488 14.4348 18.8812 15.0485 19.4949C15.6623 20.1086 16.4946 20.4534 17.3626 20.4534C18.2305 20.4534 19.0629 20.1086 19.6766 19.4949C20.2903 18.8812 20.6351 18.0488 20.6351 17.1809C20.6351 16.313 20.2903 15.4806 19.6766 14.8669C19.0629 14.2532 18.2305 13.9084 17.3626 13.9084ZM11.9084 17.1809C11.9086 16.3305 12.1076 15.4919 12.4896 14.7321C12.8717 13.9724 13.426 13.3124 14.1085 12.8051C14.791 12.2977 15.5826 11.957 16.4202 11.81C17.2579 11.6631 18.1182 11.7141 18.9326 11.9589C19.747 12.2037 20.4929 12.6355 21.1107 13.2199C21.7285 13.8043 22.2011 14.5251 22.4907 15.3247C22.7803 16.1242 22.879 16.9804 22.7787 17.8249C22.6785 18.6694 22.3822 19.4787 21.9135 20.1883L24.6788 22.9547L23.1364 24.4971L20.37 21.7319C19.5479 22.2752 18.5939 22.5857 17.6095 22.6303C16.6251 22.675 15.6469 22.452 14.7791 21.9853C13.9112 21.5185 13.186 20.8253 12.6805 19.9793C12.175 19.1334 11.9082 18.1663 11.9084 17.1809Z" fill="black"/>
</g>
<defs>
<clipPath id="clip0_2038_14">
<rect width="24" height="24" fill="white"/>
</clipPath>
</defs>
</svg>
