<svg width="24" height="24" viewBox="0 0 24 24" fill="white" xmlns="http://www.w3.org/2000/svg">
<path d="M7.63586 2C5.61071 2 3.66849 2.80449 2.23649 4.23649C0.80449 5.66849 0 7.61071 0 9.63586C0 11.661 0.80449 13.6032 2.23649 15.0352C3.66849 16.4672 5.61071 17.2717 7.63586 17.2717H8.80306C8.69863 16.5482 8.69863 15.8135 8.80306 15.09H7.63586C6.18932 15.09 4.80203 14.5154 3.77917 13.4926C2.75631 12.4697 2.18167 11.0824 2.18167 9.63586C2.18167 8.18932 2.75631 6.80203 3.77917 5.77917C4.80203 4.75631 6.18932 4.18167 7.63586 4.18167H16.3626C17.1714 4.18151 17.9702 4.36126 18.7011 4.7079C19.4319 5.05454 20.0765 5.5594 20.5881 6.1859C21.0998 6.8124 21.4656 7.54486 21.6593 8.33021C21.8529 9.11557 21.8694 9.93417 21.7077 10.7267C22.3507 11.3566 22.8773 12.0951 23.2632 12.9084C23.8153 11.7444 24.064 10.4596 23.986 9.17366C23.908 7.88771 23.5059 6.6424 22.8172 5.55366C22.1285 4.46491 21.1754 3.56812 20.0469 2.94678C18.9183 2.32543 17.6509 1.99973 16.3626 2H7.63586ZM16.3626 12.9084C15.4946 12.9084 14.6623 13.2532 14.0485 13.8669C13.4348 14.4806 13.09 15.313 13.09 16.1809C13.09 17.0488 13.4348 17.8812 14.0485 18.4949C14.6623 19.1086 15.4946 19.4534 16.3626 19.4534C17.2305 19.4534 18.0629 19.1086 18.6766 18.4949C19.2903 17.8812 19.6351 17.0488 19.6351 16.1809C19.6351 15.313 19.2903 14.4806 18.6766 13.8669C18.0629 13.2532 17.2305 12.9084 16.3626 12.9084ZM10.9084 16.1809C10.9086 15.3305 11.1076 14.4919 11.4896 13.7321C11.8717 12.9724 12.426 12.3124 13.1085 11.8051C13.791 11.2977 14.5826 10.957 15.4202 10.81C16.2579 10.6631 17.1182 10.7141 17.9326 10.9589C18.747 11.2037 19.4929 11.6355 20.1107 12.2199C20.7285 12.8043 21.2011 13.5251 21.4907 14.3247C21.7803 15.1242 21.879 15.9804 21.7787 16.8249C21.6785 17.6694 21.3822 18.4787 20.9135 19.1883L23.6788 21.9547L22.1364 23.4971L19.37 20.7319C18.5479 21.2752 17.5939 21.5857 16.6095 21.6303C15.6251 21.675 14.6469 21.452 13.7791 20.9853C12.9112 20.5185 12.186 19.8253 11.6805 18.9793C11.175 18.1334 10.9082 17.1663 10.9084 16.1809Z" fill="white"/>
</svg>
