<svg width="24" height="24" viewBox="0 0 24 24" fill="none" xmlns="http://www.w3.org/2000/svg">
<g clip-path="url(#clip0_2038_10)">
<path d="M12.1041 1.79708e-05C7.38086 -0.00816603 2.9352 2.77951 0.894929 7.19207L6.63178 7.20566V7.83014C4.86527 7.61855 5.02082 8.53161 5.27089 9.50071L9.03687 18.895L11.8049 12.4368L10.5342 9.4102C10.0726 8.59955 10.0629 7.7002 8.17456 7.7849L8.20108 7.20943L16.615 7.2298V7.87466C15.6297 7.93219 14.4435 7.62808 15.0723 9.63647L18.4753 18.5338L20.3355 13.3396C20.9447 11.1622 20.3714 9.06974 19.6475 7.01786C19.2449 5.64134 19.4327 4.49176 21.2373 4.03574C18.4828 1.23722 15.2326 0.00544197 12.1042 1.79708e-05H12.1041ZM23.5475 8.21402L18.0925 22.3666C19.599 21.0679 21.1436 20.5952 23.0337 17.0019C24.2913 14.0132 24.1619 11.2444 23.5475 8.21399V8.21402ZM0.317528 8.44329C-0.214903 12.6213 -0.166196 13.845 1.1518 17.2569C2.86983 20.5246 4.2021 21.213 6.09301 22.4948L0.317528 8.44329ZM12.3171 13.7446L8.27455 23.4526C11.1121 24.2587 13.6511 24.1578 15.9755 23.261L12.3171 13.7446Z" fill="black"/>
</g>
<defs>
<clipPath id="clip0_2038_10">
<rect width="24" height="24" fill="white"/>
</clipPath>
</defs>
</svg>
