<svg width="24" height="24" viewBox="0 0 24 24" fill="white" xmlns="http://www.w3.org/2000/svg">
<path d="M12.0867 2.00001C8.15068 1.9932 4.44598 4.31624 2.74577 7.99336L7.52645 8.00468V8.52508C6.05436 8.34876 6.18399 9.10964 6.39238 9.91722L9.53068 17.7458L11.8373 12.3639L10.7784 9.8418C10.3938 9.16626 10.3857 8.4168 8.81209 8.48738L8.83419 8.00782L15.8458 8.0248V8.56218C15.0246 8.61012 14.0362 8.3567 14.5601 10.0304L17.396 17.4447L18.9462 13.1163C19.4538 11.3018 18.9761 9.55808 18.3728 7.84819C18.0373 6.70109 18.1938 5.74312 19.6976 5.3631C17.4022 3.03101 14.6937 2.00453 12.0867 2.00001ZM21.6228 8.84498L17.077 20.6387C18.3324 19.5565 19.6196 19.1626 21.1947 16.1682C22.2427 13.6776 22.1348 11.3703 21.6228 8.84498ZM2.26461 9.03604C1.82092 12.5177 1.8615 13.5375 2.95983 16.3807C4.39151 19.1037 5.50173 19.6774 7.07748 20.7456L2.26461 9.03604ZM12.2642 13.4537L8.89542 21.5437C11.2601 22.2155 13.3759 22.1314 15.3128 21.3841L12.2642 13.4537Z" fill="white"/>
</svg>
